<svg width="34" height="34" viewBox="0 0 34 34" fill="none" xmlns="http://www.w3.org/2000/svg">
<path d="M21.4293 8.52656L28.0898 15.4992C28.4883 15.8844 28.6875 16.409 28.6875 16.9867C28.6875 17.5645 28.4883 18.0824 28.0898 18.4742L21.4293 25.4734C20.6391 26.3035 19.3508 26.3035 18.5605 25.4734C17.7703 24.6434 17.7703 23.302 18.5605 22.4719L21.7613 19.125H7.35117C6.22227 19.125 5.3125 18.1754 5.3125 17C5.3125 15.8246 6.22227 14.875 7.34453 14.875H21.7547L18.5539 11.5281C17.7637 10.698 17.7637 9.35664 18.5539 8.52656C19.3508 7.69648 20.6324 7.69648 21.4293 8.52656Z" fill="black"/>
</svg>
